<?xml version="1.0" standalone="no"?>
<!DOCTYPE svg PUBLIC "-//W3C//DTD SVG 20010904//EN"
 "http://www.w3.org/TR/2001/REC-SVG-20010904/DTD/svg10.dtd">
<svg version="1.0" xmlns="http://www.w3.org/2000/svg"
 width="930.000000pt" height="862.000000pt" viewBox="0 0 930.000000 862.000000"
 preserveAspectRatio="xMidYMid meet">

<g transform="translate(0.000000,862.000000) scale(0.100000,-0.100000)"
fill="#000000" stroke="none">
<path d="M4544 5073 c3 -32 13 -179 21 -328 9 -148 18 -289 21 -312 5 -41 7
-43 40 -43 l34 0 0 160 0 160 25 0 25 0 0 -161 0 -160 38 3 37 3 22 340 c12
187 22 352 22 368 l1 27 -146 0 -146 0 6 -57z"/>
<path d="M4292 5001 c-60 -29 -72 -39 -68 -56 2 -11 12 -80 22 -152 l18 -133
73 0 c42 0 73 4 73 10 0 18 -40 364 -43 366 -1 1 -35 -15 -75 -35z m81 -303
c-8 -14 -44 -8 -50 8 -3 8 0 27 8 40 l13 25 17 -33 c9 -18 15 -36 12 -40z"/>
<path d="M5000 5028 c0 -7 -9 -89 -20 -183 -11 -93 -20 -173 -20 -177 0 -5 33
-8 73 -8 l74 0 21 152 c12 83 21 152 19 154 -1 1 -35 18 -74 38 -47 23 -73 32
-73 24z"/>
<path d="M4857 4716 c-10 -154 -17 -291 -17 -303 l0 -23 231 0 232 0 -7 68
c-12 116 -53 234 -105 301 l-18 24 -8 -69 c-11 -107 -8 -104 -136 -104 -92 0
-111 3 -116 16 -3 9 2 88 11 176 10 88 14 163 9 167 -4 4 -20 12 -34 18 l-25
11 -17 -282z m393 -251 c0 -20 -5 -25 -25 -25 -20 0 -25 5 -25 25 0 20 5 25
25 25 20 0 25 -5 25 -25z"/>
<path d="M4446 4977 c-17 -12 -16 -20 1 -180 13 -112 16 -170 9 -177 -5 -5
-59 -10 -118 -10 -125 0 -120 -4 -133 109 l-7 64 -34 -54 c-32 -49 -84 -190
-84 -225 0 -10 12 -14 45 -14 41 0 45 -2 45 -25 0 -23 -3 -25 -50 -25 -47 0
-50 -2 -50 -25 l0 -25 233 0 232 0 -17 263 c-9 144 -17 279 -17 300 -1 40 -21
49 -55 24z m-176 -512 c0 -20 -5 -25 -25 -25 -20 0 -25 5 -25 25 0 20 5 25 25
25 20 0 25 -5 25 -25z"/>
<path d="M4000 4290 l0 -50 685 0 685 0 0 50 0 50 -685 0 -685 0 0 -50z"/>
<path d="M3060 3765 l0 -135 -45 0 c-45 0 -45 0 -45 -35 l0 -35 63 0 c53 0 67
4 85 23 21 22 22 33 22 170 l0 147 -40 0 -40 0 0 -135z"/>
<path d="M3252 3877 c-20 -21 -22 -34 -22 -148 0 -118 1 -127 23 -147 21 -20
34 -22 123 -22 97 0 101 1 127 28 26 27 27 31 27 148 0 113 -1 122 -23 142
-21 20 -34 22 -128 22 -97 0 -107 -2 -127 -23z m188 -147 l0 -101 -62 3 -63 3
-3 98 -3 97 66 0 65 0 0 -100z"/>
<path d="M3610 3730 l0 -170 133 0 c127 0 135 1 155 23 27 29 30 101 5 129
-15 17 -15 19 0 36 26 29 23 103 -6 130 -21 20 -34 22 -155 22 l-132 0 0 -170z
m228 68 l3 -28 -70 0 -71 0 0 30 0 31 68 -3 c65 -3 67 -4 70 -30z m2 -138 l0
-30 -70 0 -70 0 0 30 0 30 70 0 70 0 0 -30z"/>
<path d="M4212 3877 c-34 -36 -31 -121 5 -159 25 -26 32 -28 110 -28 l83 0 0
-30 0 -30 -64 0 c-44 0 -67 5 -76 15 -7 8 -28 15 -46 15 -29 0 -34 -4 -34 -23
0 -13 13 -35 28 -50 27 -26 33 -27 133 -27 97 0 107 2 127 23 34 36 31 121 -5
159 -25 26 -32 28 -110 28 l-83 0 0 30 0 30 64 0 c44 0 67 -5 76 -15 7 -8 28
-15 46 -15 31 0 34 3 34 28 0 17 -10 37 -23 50 -21 20 -34 22 -133 22 -103 0
-112 -2 -132 -23z"/>
<path d="M4580 3757 l0 -143 28 -27 c27 -26 31 -27 150 -27 l122 0 0 35 0 35
-105 0 -105 0 0 30 0 30 90 0 90 0 0 40 0 40 -90 0 -90 0 0 30 0 30 105 0 105
0 0 35 0 35 -150 0 -150 0 0 -143z"/>
<path d="M4960 3757 l0 -143 28 -27 c27 -26 32 -27 145 -27 l117 0 0 35 0 35
-100 0 -100 0 0 30 0 29 88 3 87 3 3 38 3 37 -90 0 -91 0 0 30 0 30 100 0 100
0 0 35 0 35 -145 0 -145 0 0 -143z"/>
<path d="M5340 3730 l0 -170 40 0 40 0 0 65 0 65 34 0 c31 0 37 -5 72 -65 38
-64 39 -65 81 -65 55 0 55 11 3 99 -22 37 -40 71 -40 76 0 4 18 36 40 71 52
83 52 94 -3 94 -42 0 -43 -1 -80 -65 -35 -60 -40 -65 -72 -65 l-35 0 0 65 0
65 -40 0 -40 0 0 -170z"/>
<path d="M5720 3752 c0 -196 -3 -192 168 -192 l122 0 0 35 0 35 -100 0 -100 0
0 30 0 30 85 0 85 0 0 40 0 40 -85 0 -85 0 0 30 0 30 100 0 100 0 0 35 0 35
-145 0 -145 0 0 -148z"/>
<path d="M6100 3730 l0 -170 40 0 39 0 3 58 c3 56 4 57 35 60 28 3 34 -2 68
-57 37 -60 39 -61 81 -61 53 0 57 16 19 72 -14 20 -25 41 -25 46 0 5 11 19 25
32 21 20 25 33 25 79 0 46 -4 59 -27 83 -27 28 -28 28 -155 28 l-128 0 0 -170z
m220 60 l0 -41 -67 3 -68 3 -3 38 -3 37 70 0 71 0 0 -40z"/>
</g>
</svg>
