<?xml version="1.0" standalone="no"?>
<!DOCTYPE svg PUBLIC "-//W3C//DTD SVG 20010904//EN"
 "http://www.w3.org/TR/2001/REC-SVG-20010904/DTD/svg10.dtd">
<svg version="1.0" xmlns="http://www.w3.org/2000/svg"
 width="444.000000pt" height="372.000000pt" viewBox="0 0 444.000000 372.000000"
 preserveAspectRatio="xMidYMid meet">

<g transform="translate(0.000000,372.000000) scale(0.100000,-0.100000)"
fill="#000000" stroke="none">
<path d="M1844 3192 c9 -60 34 -404 56 -782 46 -789 67 -1070 81 -1109 15 -37
25 -41 112 -41 l77 0 0 425 0 425 65 0 65 0 0 -428 0 -428 97 8 c53 4 98 10
100 12 6 6 123 1825 123 1916 l0 40 -391 0 -392 0 7 -38z"/>
<path d="M1215 2906 c-83 -40 -165 -88 -184 -105 -30 -28 -33 -35 -27 -69 3
-20 26 -183 51 -362 25 -179 47 -340 50 -357 l6 -33 167 1 c92 1 178 4 192 8
24 7 25 10 22 82 -2 67 -84 799 -98 877 -4 17 -11 32 -18 32 -6 0 -79 -34
-161 -74z m185 -807 c0 -28 -27 -42 -66 -36 -20 3 -42 11 -50 18 -22 18 -17
85 13 142 l26 52 39 -80 c21 -43 38 -87 38 -96z"/>
<path d="M3075 2958 c-5 -18 -105 -907 -105 -939 0 -35 22 -39 225 -39 l163 0
6 33 c4 25 78 565 101 743 l6 40 -158 76 c-134 64 -213 98 -230 98 -2 0 -5 -6
-8 -12z"/>
<path d="M2736 2857 c-7 -34 -77 -1242 -83 -1429 l-6 -168 617 0 616 0 0 25
c0 58 -42 338 -64 430 -33 133 -87 281 -140 380 -43 81 -126 204 -137 205 -4
0 -10 -30 -14 -67 -15 -156 -36 -294 -47 -318 -6 -13 -30 -34 -53 -45 -38 -18
-61 -20 -277 -20 -255 0 -294 6 -304 47 -8 31 2 192 27 443 29 293 35 452 18
467 -8 7 -45 25 -82 42 l-67 30 -4 -22z m994 -1356 c15 -29 12 -77 -6 -92 -22
-18 -92 -18 -104 1 -14 21 -12 84 2 98 7 7 31 12 55 12 32 0 45 -5 53 -19z"/>
<path d="M1621 2843 c-21 -11 -39 -30 -48 -52 -17 -41 -15 -83 23 -431 14
-124 28 -282 31 -352 l6 -127 -29 -12 c-19 -8 -114 -14 -274 -17 -282 -5 -304
0 -334 62 -9 20 -24 92 -32 159 -8 67 -19 147 -23 177 l-7 55 -47 -72 c-91
-140 -185 -356 -242 -549 -30 -105 -32 -139 -8 -149 10 -3 59 -9 108 -12 100
-6 115 -15 115 -69 0 -48 -19 -57 -141 -63 -125 -7 -129 -9 -129 -83 l0 -48
620 0 620 0 0 43 c0 24 -7 142 -15 263 -19 279 -52 814 -65 1059 -12 208 -19
235 -68 235 -15 0 -42 -8 -61 -17z m-503 -1355 c12 -47 3 -78 -25 -89 -60 -23
-94 -2 -95 60 0 51 11 61 69 61 39 0 43 -2 51 -32z"/>
<path d="M410 997 l0 -137 1825 0 1825 0 0 130 0 130 -458 0 c-252 0 -1074 3
-1825 7 l-1367 6 0 -136z"/>
</g>
</svg>
